<svg viewBox="0 0 2400 1000" width="2400" height="1000" xmlns="http://www.w3.org/2000/svg">
  <defs>
    <linearGradient id="heroSkyGrad" x1="0" y1="0" x2="0" y2="1">
      <stop offset="0%" stop-color="#05070a"/>
      <stop offset="38%" stop-color="#0a0d10"/>
      <stop offset="62%" stop-color="#10171a"/>
      <stop offset="82%" stop-color="#0d1c1c"/>
      <stop offset="100%" stop-color="#040605"/>
    </linearGradient>
    <radialGradient id="heroSunGlow" cx="50%" cy="50%" r="50%">
      <stop offset="0%" stop-color="#5fe8c6" stop-opacity="0.55"/>
      <stop offset="45%" stop-color="#3ab89a" stop-opacity="0.22"/>
      <stop offset="100%" stop-color="#3ab89a" stop-opacity="0"/>
    </radialGradient>
    <radialGradient id="heroWarmGlow" cx="50%" cy="50%" r="50%">
      <stop offset="0%" stop-color="#ff8a3d" stop-opacity="0.55"/>
      <stop offset="100%" stop-color="#ff8a3d" stop-opacity="0"/>
    </radialGradient>
    <linearGradient id="heroHorizonGlow" x1="0" y1="0" x2="1" y2="0">
      <stop offset="0%" stop-color="#5fe8c6" stop-opacity="0"/>
      <stop offset="55%" stop-color="#5fe8c6" stop-opacity="0.4"/>
      <stop offset="100%" stop-color="#ff8a3d" stop-opacity="0.25"/>
    </linearGradient>
    <linearGradient id="heroBeam" x1="0" y1="0" x2="0" y2="1">
      <stop offset="0%" stop-color="#5fe8c6" stop-opacity="0.18"/>
      <stop offset="100%" stop-color="#5fe8c6" stop-opacity="0"/>
    </linearGradient>
    <linearGradient id="heroVignette" x1="0" y1="0" x2="0" y2="1">
      <stop offset="0%" stop-color="#040506" stop-opacity="0.35"/>
      <stop offset="40%" stop-color="#040506" stop-opacity="0"/>
      <stop offset="100%" stop-color="#040506" stop-opacity="0.85"/>
    </linearGradient>
    <radialGradient id="heroVignetteSide" cx="50%" cy="45%" r="75%">
      <stop offset="0%" stop-color="#040506" stop-opacity="0"/>
      <stop offset="75%" stop-color="#040506" stop-opacity="0"/>
      <stop offset="100%" stop-color="#040506" stop-opacity="0.55"/>
    </radialGradient>
  </defs>

  <rect width="2400" height="1000" fill="url(#heroSkyGrad)"/>

  <ellipse cx="1750" cy="430" rx="700" ry="480" fill="url(#heroSunGlow)"/>
  <ellipse cx="1700" cy="490" rx="520" ry="380" fill="url(#heroWarmGlow)"/>
  <ellipse cx="1700" cy="490" rx="520" ry="380" fill="url(#heroWarmGlow)" opacity="0.6"/>
  <rect x="0" y="478" width="2400" height="2" fill="url(#heroHorizonGlow)"/>

  <g opacity="0.5">
    <polygon points="1300,0 1750,0 1900,1000 1100,1000" fill="url(#heroBeam)"/>
    <polygon points="1550,0 1850,0 2050,1000 1500,1000" fill="url(#heroBeam)" opacity="0.6"/>
  </g>

  <g stroke="#5fe8c6" stroke-opacity="0.22" stroke-width="1.4" fill="none">
    <path d="M0 620 L260 620 L320 560 L600 560 L660 500 L980 500 L1040 440 L1700 440"/>
    <path d="M0 720 L200 720 L260 670 L520 670 L580 610 L880 610 L940 550 L1600 550"/>
  </g>
  <g fill="#5fe8c6" opacity="0.4">
    <circle cx="260" cy="620" r="3"/>
    <circle cx="600" cy="560" r="3"/>
    <circle cx="980" cy="500" r="3"/>
    <circle cx="200" cy="720" r="3"/>
    <circle cx="520" cy="670" r="3"/>
    <circle cx="880" cy="610" r="3"/>
  </g>

  <g stroke="#5fe8c6" stroke-opacity="0.35" stroke-width="1.5" fill="none">
    <path d="M1700 460 L1980 460 L2040 400 L2300 400"/>
    <path d="M1620 540 L1900 540 L1960 480 L2250 480"/>
  </g>
  <g fill="#5fe8c6" opacity="0.6">
    <circle cx="1980" cy="460" r="3.5"/>
    <circle cx="2040" cy="400" r="3.5"/>
    <circle cx="1900" cy="540" r="3.5"/>
    <circle cx="1960" cy="480" r="3.5"/>
  </g>

  <g stroke="#ff8a3d" stroke-opacity="0.25" stroke-width="1.3" fill="none">
    <path d="M1100 280 L1380 280 L1440 230 L1700 230"/>
    <path d="M1850 200 L1920 200 L1960 160 L2200 160"/>
  </g>
  <g fill="#ffb04d" opacity="0.5">
    <circle cx="1380" cy="280" r="3"/>
    <circle cx="1920" cy="200" r="3"/>
  </g>

  <g opacity="0.07">
    <circle cx="320" cy="180" r="1.5" fill="#5fe8c6"/>
    <circle cx="780" cy="120" r="1.5" fill="#5fe8c6"/>
    <circle cx="1450" cy="90" r="1.5" fill="#5fe8c6"/>
    <circle cx="2100" cy="150" r="1.5" fill="#5fe8c6"/>
    <circle cx="560" cy="340" r="1.5" fill="#5fe8c6"/>
    <circle cx="1850" cy="320" r="1.5" fill="#5fe8c6"/>
  </g>

  <rect width="2400" height="1000" fill="url(#heroVignette)"/>
  <rect width="2400" height="1000" fill="url(#heroVignetteSide)"/>
</svg>
