<svg viewBox="0 0 2400 900" width="2400" height="900" xmlns="http://www.w3.org/2000/svg">
  <defs>
    <linearGradient id="skyGrad" x1="0" y1="0" x2="0" y2="1">
      <stop offset="0%" stop-color="#07090d"/>
      <stop offset="40%" stop-color="#16100c"/>
      <stop offset="65%" stop-color="#33200f"/>
      <stop offset="85%" stop-color="#4a280f"/>
      <stop offset="100%" stop-color="#0a0705"/>
    </linearGradient>
    <radialGradient id="sunGlow" cx="50%" cy="50%" r="50%">
      <stop offset="0%" stop-color="#ffb04d" stop-opacity="0.85"/>
      <stop offset="45%" stop-color="#ff8a3d" stop-opacity="0.4"/>
      <stop offset="100%" stop-color="#ff8a3d" stop-opacity="0"/>
    </radialGradient>
    <linearGradient id="horizonGlow" x1="0" y1="0" x2="1" y2="0">
      <stop offset="0%" stop-color="#ff8a3d" stop-opacity="0"/>
      <stop offset="50%" stop-color="#ffb04d" stop-opacity="0.55"/>
      <stop offset="100%" stop-color="#ff8a3d" stop-opacity="0"/>
    </linearGradient>
    <linearGradient id="vignette" x1="0" y1="0" x2="0" y2="1">
      <stop offset="0%" stop-color="#05060a" stop-opacity="0.5"/>
      <stop offset="45%" stop-color="#05060a" stop-opacity="0.08"/>
      <stop offset="100%" stop-color="#05060a" stop-opacity="0.9"/>
    </linearGradient>
    <linearGradient id="rackFade" x1="0" y1="0" x2="0" y2="1">
      <stop offset="0%" stop-color="#0a0604" stop-opacity="0.95"/>
      <stop offset="100%" stop-color="#0a0604" stop-opacity="0.65"/>
    </linearGradient>
  </defs>

  <rect width="2400" height="900" fill="url(#skyGrad)"/>
  <ellipse cx="1200" cy="640" rx="560" ry="300" fill="url(#sunGlow)"/>
  <rect x="0" y="615" width="2400" height="3" fill="url(#horizonGlow)"/>

  <g stroke="#5fe8c6" stroke-opacity="0.4" stroke-width="1.5" fill="none">
    <path d="M150 560 L450 560 L520 500 L800 500 L860 440 L1180 440 L1240 380 L1900 380"/>
    <path d="M250 480 L580 480 L640 430 L920 430 L980 370 L1300 370 L1360 320 L2000 320"/>
  </g>
  <g fill="#5fe8c6" opacity="0.65">
    <circle cx="450" cy="560" r="3.5"/>
    <circle cx="800" cy="500" r="3.5"/>
    <circle cx="1180" cy="440" r="3.5"/>
    <circle cx="580" cy="480" r="3.5"/>
    <circle cx="920" cy="430" r="3.5"/>
    <circle cx="1300" cy="370" r="3.5"/>
  </g>

  <g stroke="#ff8a3d" stroke-opacity="0.3" stroke-width="1.3" fill="none">
    <path d="M350 340 L650 340 L710 290 L960 290 L1020 240 L1320 240"/>
    <path d="M1700 220 L1780 220 L1820 180 L2100 180"/>
  </g>
  <g fill="#ffb04d" opacity="0.55">
    <circle cx="650" cy="340" r="3"/>
    <circle cx="960" cy="290" r="3"/>
    <circle cx="1780" cy="220" r="3"/>
  </g>

  <g opacity="0.92">
    <rect x="300" y="640" width="70" height="260" fill="url(#rackFade)"/>
    <rect x="300" y="640" width="70" height="260" fill="none" stroke="#1a1410" stroke-width="1"/>
    <g stroke="#5fe8c6" stroke-opacity="0.5" stroke-width="1">
      <line x1="312" y1="660" x2="358" y2="660"/>
      <line x1="312" y1="685" x2="358" y2="685"/>
      <line x1="312" y1="710" x2="358" y2="710"/>
    </g>
    <circle cx="320" cy="660" r="2" fill="#5fe8c6"/>
    <circle cx="320" cy="710" r="2" fill="#ff8a3d"/>

    <rect x="400" y="600" width="70" height="300" fill="url(#rackFade)"/>
    <rect x="400" y="600" width="70" height="300" fill="none" stroke="#1a1410" stroke-width="1"/>
    <g stroke="#5fe8c6" stroke-opacity="0.5" stroke-width="1">
      <line x1="412" y1="625" x2="458" y2="625"/>
      <line x1="412" y1="650" x2="458" y2="650"/>
      <line x1="412" y1="675" x2="458" y2="675"/>
      <line x1="412" y1="700" x2="458" y2="700"/>
    </g>
    <circle cx="420" cy="625" r="2" fill="#5fe8c6"/>
    <circle cx="420" cy="675" r="2" fill="#5fe8c6"/>

    <rect x="1950" y="580" width="80" height="320" fill="url(#rackFade)"/>
    <rect x="1950" y="580" width="80" height="320" fill="none" stroke="#1a1410" stroke-width="1"/>
    <g stroke="#ff8a3d" stroke-opacity="0.45" stroke-width="1">
      <line x1="1964" y1="605" x2="2016" y2="605"/>
      <line x1="1964" y1="630" x2="2016" y2="630"/>
      <line x1="1964" y1="655" x2="2016" y2="655"/>
    </g>
    <circle cx="1972" cy="605" r="2" fill="#ff8a3d"/>
    <circle cx="1972" cy="655" r="2" fill="#5fe8c6"/>

    <rect x="2060" y="640" width="65" height="260" fill="url(#rackFade)"/>
    <rect x="2060" y="640" width="65" height="260" fill="none" stroke="#1a1410" stroke-width="1"/>
    <g stroke="#5fe8c6" stroke-opacity="0.45" stroke-width="1">
      <line x1="2072" y1="665" x2="2113" y2="665"/>
      <line x1="2072" y1="690" x2="2113" y2="690"/>
    </g>
    <circle cx="2080" cy="665" r="2" fill="#5fe8c6"/>
  </g>

  <rect width="2400" height="900" fill="url(#vignette)"/>
</svg>